<svg width="176" height="45" fill="none" xmlns="http://www.w3.org/2000/svg"><path fill-rule="evenodd" clip-rule="evenodd" d="M5.741 1.84A3.901 3.901 0 0 0 1.84 5.74v33.22a3.901 3.901 0 0 0 3.901 3.902H170.26a3.902 3.902 0 0 0 3.901-3.901V5.742a3.902 3.902 0 0 0-3.901-3.902H5.741ZM0 5.74C0 2.571 2.57 0 5.741 0H170.26A5.741 5.741 0 0 1 176 5.741v33.22c0 3.172-2.57 5.742-5.741 5.742H5.741A5.741 5.741 0 0 1 0 38.962V5.742Z" fill="#000"/><path d="M14.235 28.865V16.819c0-1.822.522-3.192 1.532-4.198a5.434 5.434 0 0 1 3.875-1.566h9.865v3.38h-9.425c-1.596 0-2.475.848-2.475 2.474v11.689c.007.164.028.328.064.488a2.403 2.403 0 0 0 2.41 2.017h9.343v3.38h-10.06a5.543 5.543 0 0 1-2.928-1.011c-1.127-.751-1.855-1.986-2.148-3.646a9.469 9.469 0 0 1-.053-.961ZM31.929 34.497V11.055h2.932v23.442H31.93ZM37.986 29.785v-2.118c0-3.583 1.757-5.468 4.506-5.468h7.228v-1.126a1.157 1.157 0 0 0-.195-.65 1.04 1.04 0 0 0-.913-.521l-10.611-.034v-2.93h10.405c2.313 0 3.646.943 4.168 3.256.038.26.059.52.064.781v9.05a4.198 4.198 0 0 1-.616 2.253c-.946 1.528-2.182 2.253-3.65 2.253H42.51a4.507 4.507 0 0 1-2.41-.815 4.36 4.36 0 0 1-2.114-3.931Zm2.962.375c.323 1.172.751 1.434 2.377 1.434h3.954c1.63 0 2.054-.262 2.377-1.434a.873.873 0 0 0 .034-.293v-2.831c.006-.11-.006-.22-.034-.327-.293-1.074-.75-1.43-2.016-1.562h-4.641c-1.27.132-1.758.488-2.05 1.562-.029.107-.04.217-.034.327v2.831a.87.87 0 0 0 .033.267v.026ZM55.015 34.497v-2.929h8.982a1.017 1.017 0 0 0 .717-.327c.326-.259.488-.683.488-1.434v-1.333c0-1.172-.488-1.66-1.724-1.66h-3.972c-2.05 0-3.192-.62-3.94-1.877a3.677 3.677 0 0 1-.488-1.758v-2.252c0-2.509 1.465-4.007 3.906-4.007h9.18v2.929h-8.918c-.229.018-.451.085-.653.195a1.127 1.127 0 0 0-.586 1.108v1.269a1.501 1.501 0 0 0 1.596 1.434h4.364c.272.007.544.028.814.064 2.05.458 3.354 2.05 3.354 3.973v2.768a3.804 3.804 0 0 1-.62 2.016 3.54 3.54 0 0 1-.912 1.044 4.445 4.445 0 0 1-2.212.78l-9.376-.003ZM70.117 34.497v-2.929h8.985a1.025 1.025 0 0 0 .718-.327c.323-.259.488-.683.488-1.434v-1.333c0-1.172-.488-1.66-1.728-1.66h-3.972c-2.05 0-3.188-.62-3.94-1.877a3.718 3.718 0 0 1-.488-1.758v-2.252c0-2.509 1.469-4.007 3.91-4.007h9.18v2.929H74.35c-.228.018-.45.085-.65.195a1.127 1.127 0 0 0-.586 1.104v1.27a1.502 1.502 0 0 0 1.596 1.434h4.36c.272.006.544.027.814.064 2.05.458 3.354 2.05 3.354 3.972v2.768a3.804 3.804 0 0 1-.62 2.016c-.23.406-.539.76-.909 1.044a4.457 4.457 0 0 1-2.215.781h-9.376ZM94.273 28.865V16.819c0-1.822.518-3.192 1.528-4.198a5.434 5.434 0 0 1 3.875-1.566h9.865v3.38h-9.41c-1.596 0-2.475.848-2.475 2.474v11.689c.006.165.029.328.068.488a2.396 2.396 0 0 0 2.407 2.017h9.342v3.38h-10.06a5.544 5.544 0 0 1-2.928-1.011c-1.127-.751-1.855-1.986-2.148-3.646a9.477 9.477 0 0 1-.064-.961ZM111.977 30.16v-9.14c0-2.41 1.371-3.777 3.909-4.07.259 0 .522-.034.781-.034h5.37c.24.005.48.026.717.064 2.606.375 3.973 1.761 3.973 4.04v9.14c0 1.694-.683 2.831-2.411 3.808a4.42 4.42 0 0 1-2.279.521h-5.467c-4.3.008-4.705-4.291-4.593-4.329Zm5.047 1.4h4.72c1.303 0 2.054-.717 2.054-2.215v-7.382c0-1.434-.751-2.118-2.054-2.118h-4.72c-1.367 0-2.114.717-2.114 2.118v7.258c0 1.596.747 2.347 2.114 2.347v-.007ZM129.851 29.905v-8.562c.005-.272.026-.544.064-.814.424-2.441 1.877-3.613 4.69-3.613h6.834v-5.861h2.933v18.493c0 1.528-.293 2.313-1.24 3.38-1.01 1.104-1.952 1.562-3.157 1.562h-5.761a4.428 4.428 0 0 1-1.727-.425c-1.821-.807-2.636-2.238-2.636-4.16Zm2.963 0c.161 1.044.518 1.468 1.235 1.63.107.026.217.037.327.033h5.144c.415 0 .815-.151 1.127-.424a1.882 1.882 0 0 0 .781-1.66v-7.75c0-1.236-.421-1.758-1.596-1.855a1.157 1.157 0 0 0-.323-.034h-4.806c-1.371 0-1.923.556-1.923 1.957v7.907a.375.375 0 0 0 .034.196ZM147.492 29.875v-7.886c0-3.353 1.727-5.08 5.437-5.08h4.371c2.865 0 4.623 1.66 4.623 4.506v2.08l-11.491 5.34v.78c.259 1.596.616 1.957 2.017 1.957h9.669V34.5h-9.838c-1.728 0-2.865-.488-3.808-1.694a4.605 4.605 0 0 1-.98-2.932Zm2.933-4.266 8.561-3.973v-.259c0-1.126-.458-1.532-1.791-1.532h-4.776c-1.401 0-1.987.654-1.987 2.216l-.007 3.548ZM90.203.901l-4.285 12.546c-.131.477.041.713.518.713h1.566a.71.71 0 0 0 .714-.522L93.8.901h-3.597Z" fill="#000"/></svg>
