<?xml version="1.0" encoding="utf-8"?>
<!-- Generator: Adobe Illustrator 26.0.2, SVG Export Plug-In . SVG Version: 6.00 Build 0)  -->
<svg version="1.2" baseProfile="tiny" id="Calque_1"
	 xmlns="http://www.w3.org/2000/svg" xmlns:xlink="http://www.w3.org/1999/xlink" x="0px" y="0px" width="1270.7px"
	 height="181.9px" viewBox="0 0 1270.7 181.9" overflow="visible" xml:space="preserve">
<g>
	<g>
		<path fill="#51BCC5" d="M141.3,132V46.7c0-13.5,2.6-22.7,7.7-27.8c5.2-5,14.7-7.5,28.6-7.5h65v33.4h-55.5h-3h-1.7
			c-4.3,0.4-6.9,2.7-7.7,6.9v3.9v63.9c0,5.2,0.7,8.7,2,10.7c1.4,1.9,4,2.9,7.9,2.9h2.8h55.3v33.4h-70c-3.7,0-7.6-0.8-11.6-2.4
			C147.9,158.9,141.3,148.2,141.3,132z"/>
		<path fill="#51BCC5" d="M259.7,166.4V6.7h29.5v159.7H259.7z"/>
		<path fill="#51BCC5" d="M309.4,140.1v-23.7c0-8.6,2.5-15.4,7.5-20.2c5-4.9,12-7.3,20.9-7.3h39.4l-0.2-6.2c0-2.4-2.1-3.9-6.3-4.5
			h-1.5h-59.8v-28h67.8h5.1c7.4,0.9,12.9,3,16.5,6.3c3.7,3.3,6.1,8.5,7.2,15.6c0.3,1.2,0.4,2.9,0.4,5.2V139c0,2.4-0.1,4.3-0.4,5.4
			c-1.3,6.6-4.3,12-9,16c-4.7,4-10.5,6-17.2,6h-40.5c-16.9,0-26.8-7-29.5-21.1c0.1-1.1,0.1-2.2,0-3.2
			C309.8,141.6,309.7,141,309.4,140.1z M340.4,135.1c0.9,1.3,2.4,2.2,4.5,2.6h1.5h23c2.6,0,4.5-0.7,5.7-2.2c1.2-1.4,1.8-2.9,1.8-4.5
			v-8.2c0-2-0.1-3.2-0.4-3.7c-0.3-0.6-1.4-1.3-3.2-2.2c-0.7-0.6-2.1-0.9-4.1-0.9h-24.5h-1.3c-2.6,0.4-4.1,2.3-4.5,5.7v1.8v7.5
			C338.9,132.7,339.4,134,340.4,135.1z"/>
		<path fill="#51BCC5" d="M425.2,166.4v-29.5h51.4h1.3c3.3-0.6,5.3-2.1,5.8-4.5v-1.3v-2.4l-0.6-2.6c-1-1.7-2.4-2.8-4.3-3.2h-3h-22.4
			c-4.7,0-9-1.1-12.7-3.2c-9.9-5.5-14.9-12.6-14.9-21.5V76.4c0-2.6,0.3-4.8,0.9-6.7c3.2-13.1,12.4-19.6,27.8-19.6h59.4l0.2,29.5
			h-50.6h-2.6l-2.8,0.9l-0.6,0.6c-1.7,1.6-2.6,2.9-2.6,3.9v2.8c0.1,0.4,0.2,0.8,0.2,1.1c0.1,0.7,0.6,1.5,1.4,2.5
			c0.8,0.9,2.6,1.6,5.5,2h1.5H488c7.3,0,13.3,2.9,18.2,8.8c4.8,5.9,7.3,11.6,7.3,17v21.3c0,4.7-1.5,9.4-4.6,13.9
			c-3.1,4.5-6.3,7.6-9.6,9.4c-3.3,1.7-7.8,2.6-13.3,2.6H425.2z"/>
		<path fill="#51BCC5" d="M531.3,166.4v-29.5h51.4h1.3c3.3-0.6,5.3-2.1,5.8-4.5v-1.3v-2.4l-0.6-2.6c-1-1.7-2.4-2.8-4.3-3.2h-3h-22.4
			c-4.7,0-9-1.1-12.7-3.2c-9.9-5.5-14.9-12.6-14.9-21.5V76.4c0-2.6,0.3-4.8,0.9-6.7c3.2-13.1,12.4-19.6,27.8-19.6H620l0.2,29.5
			h-50.6H567l-2.8,0.9l-0.6,0.6c-1.7,1.6-2.6,2.9-2.6,3.9v2.8c0.1,0.4,0.2,0.8,0.2,1.1c0.1,0.7,0.6,1.5,1.4,2.5
			c0.8,0.9,2.6,1.6,5.5,2h1.5h24.6c7.3,0,13.3,2.9,18.2,8.8c4.8,5.9,7.3,11.6,7.3,17v21.3c0,4.7-1.5,9.4-4.6,13.9
			c-3.1,4.5-6.3,7.6-9.6,9.4c-3.3,1.7-7.8,2.6-13.3,2.6H531.3z"/>
		<path fill="#51BCC5" d="M634.1,70.5l10.7-23.1c-7.1-3.6-10.6-9.3-10.6-17.2c0-5.5,1.9-9.9,5.7-13.5c3.8-3.5,8.1-5.3,12.8-5.3
			c5,0,9.4,1.9,13.1,5.6c3.7,3.7,5.6,8.4,5.6,14c0,2.2,0,3.7,0,4.7l-2,5.2l-14.4,29.5L634.1,70.5z"/>
		<path fill="#51BCC5" d="M687.1,132V46.7c0-13.5,2.6-22.7,7.7-27.8c5.2-5,14.7-7.5,28.6-7.5h65v33.4H733h-3h-1.7
			c-4.3,0.4-6.9,2.7-7.7,6.9v3.9v63.9c0,5.2,0.7,8.7,2,10.7c1.4,1.9,4,2.9,7.9,2.9h2.8h55.3v33.4h-70c-3.7,0-7.6-0.8-11.6-2.4
			C693.7,158.9,687.1,148.2,687.1,132z"/>
		<path fill="#51BCC5" d="M805.5,140.4V76.2l0.6-5.2c2.7-13.9,12.3-20.9,28.6-20.9h39.6c16.2,0,25.8,7,28.8,20.9
			c0.3,1.1,0.4,2.9,0.4,5.2v64.1c0,2.3-0.1,4-0.4,5.2c-3,13.9-12.6,20.9-28.8,20.9h-39.6c-16.4,0-25.9-7-28.6-20.9L805.5,140.4z
			 M837.6,135c1.6,1.3,2.9,1.9,4.1,1.9h26c1.9,0,3.6-1.1,5.2-3.4c1-1.6,1.5-3.2,1.5-4.7V87.6c0-2.3-0.8-4.2-2.4-5.7
			c-1.6-1.5-3-2.3-4.3-2.3h-26c-1.4,0-2.9,0.8-4.4,2.3c-1.5,1.5-2.3,3.4-2.3,5.7v41.3C835,131.2,835.9,133.3,837.6,135z"/>
		<path fill="#51BCC5" d="M923.5,137.1V79v-4.7c0.9-6.2,3.1-11.3,6.7-15.5c3.6-4.2,8.2-6.8,13.9-8l5.8-0.6h42.2V6.7h29.3v128.5
			c0,5.6-0.5,10-1.5,13.2c-1,3.2-2.8,6.2-5.4,8.9c-5.5,6-12.9,9-22.4,9h-41.8c-5.5,0-9.9-1-13.5-3.1c-3.5-2.1-6.8-5.6-9.8-10.7
			C924.7,148.2,923.5,143,923.5,137.1z M992.1,88.1v-1.5c-0.4-2.3-1.3-3.9-2.6-4.8c-1.9-1.4-3.6-2.2-5.2-2.2h-22.7
			c-2.5,0-4.3,0.5-5.6,1.5c-1.3,1-2.2,2.8-2.8,5.4v1.3v42.3v2.2c0.7,2.3,2.5,3.8,5.2,4.5h1.7h24.4h1.7c3.9-0.6,5.9-2.1,5.9-4.5V88.1
			z"/>
		<path fill="#51BCC5" d="M1042.1,77.3l0.6-5.8c3.3-14.2,12.7-21.3,28.3-21.3h40.1h5.2c13.2,2.2,20.7,9.8,22.4,23v5v23.4l-67.2,25.2
			v1.9c0,2.4,0.5,4.4,1.6,5.9c1.1,1.5,2.5,2.3,4.2,2.3h61.3v29.5h-64.9c-4.9,0-8.5-0.2-10.7-0.6c-2.2-0.4-4.5-1.3-6.8-2.6
			c-5.2-2.9-8.8-6.3-11-10.4c-2.2-4.1-3.2-9.6-3.2-16.5V77.3z M1108.8,86.9l0-1.1c-0.6-2.5-2.4-4-5.6-4.6h-1.5H1081l-3.2,0.6
			c-2.7,0.7-4.6,2-5.6,3.8l-0.6,3l-0.1,11.7L1108.8,86.9z"/>
	</g>
	<g>
		<path fill="#51BCC5" d="M90.2,153.7c1.6-2.4,1.7-3.7,0.9-6.7c-1.7-0.1-2.4,2.7-4.2,1.8c0.5-0.3,1.9-0.1,0.6,0.6
			c-0.2-4.4-11.9-1.5-7.6,0.7c0,1.9,0.9,0.6,1.7,2.4c-9.3,2.9-2.2-20-10.7-7.1c-1.2-1.3-2.6-10.1-4.5-6.2c0.3,1.2,1.3,2.7,1,4
			c-2.1,0-2.9-1-2.6-2.9c-2.4-0.9-3.7,0.8-5.9,0.7c0-0.9,0.9-3.6,0.7-4.5c-1.4-0.5-2.9-1.7-3.3,0.6c-3.9,10.4-12.6-7.8-19.5-3
			c-2.4-0.1-2.7-7.7-6.4-3.1v-2.9c-0.3-0.1-1.1,0.2-1.2-0.2c-16.8,4.3-5.6-2.3-16.9-3.8c-0.4-3.1-3.4-5.2-3.8-8.3
			c-0.2-2.4,3-2,3.8-3.8c-1.2-5.2,3.9-12.8,9.3-12.8c3.5,0.6,1.2-1.2,2.3-2.6c0.6-0.7,4.2-0.8,4.2-3.1c2.1-4.4,8.3-5.3,10.9-9.5
			c0.6,0.4,1.6,2,2.4,1.4c-2.1-5.2,8.5-10.7,12.1-15.9c3.9-0.8,5.1-1.1,7.6-4.5c-1.2,1.7,2.9,5.1,4.3,5c0-1.4,1-4.8-0.5-5.7
			c-3.5-8.1,12.4-4.6,12.1-12.4c2.1-0.8,2.3,2.6,3.8,1.7c6.3-3.6,3.2,7.7,5.7,9.3c1.4-0.8,1-3.5,1.9-4.8c1.6,0.5,0.8,3.7,2.9,1.9
			v-3.8c2.5-0.2,6.1,12.5,7.8,7.6c0.1-1.5-1.6-3.8,0-5c3.5,3.8-0.1,9.8-1.2,14.2c-0.9,2.6-1.1,1.6-2.6,1.1C94.9,74,94,74.3,94,73.8
			c-2.2,0.3-0.4,3.3-3.7,3c-10.1,2.2-2.8,13.3-17,5.8c-0.2,2.7,2.4,4.9,1.4,7.4l-2.4-2.1c0.2,2.4-0.9,4.7-3.1,6.9
			c2-3.2-2.6-7.3-4.8-2.6c-1.4,1.9-1.3,2.8-2.9,2.6c1.3-3.9-3-3.5-5.2-2.4c-7.8-1.8-4.5,9.3-5.5,14c-0.9-0.1-1.7-1.1-2.1-1.9
			c-1.1,2.1-4.2,1.9-5.9,3.2c-4,2.9,4.7,5.2,3.6,1.3c1.8-0.2,0.6,4.6,1,5.5c5.1-2.1,6.4,0.8,11.7,2c7.9,1.4,4.4,2,5.5,7.7
			c1.9,0,1.5-2.4,1.9-3.8c3.3,0.1,2.4,4.1,1.9,6.7c1.7,0.1,1.8-1.3,2.5-2.4c3.7-1.5,12,1.1,11.8,6.2c2.1-0.2,1.8,1.3,3.6-0.5
			c-1.8,6.6,0.2,11.2,4,2.9c3.1,0.1,5,5.8,7.4,6.2c5,5.2,13,11.9,11.4,20c-2.5,0.8-7.5,0.4-8.3,3.8c0.2-1.7-3.9-0.7-4.8-1
			C96.4,158.5,91.9,156.5,90.2,153.7z M11.4,117.6c0.7,1.2,2,0.6,3.1,0.7c-0.5-0.9-1.3-1.9-2.4-1.7
			C12.2,116.8,11.9,117.1,11.4,117.6z M20.7,103.1c0.2,3.1,3.7,0.2,1.4-0.7C21.6,102.4,20.7,102.2,20.7,103.1z M27.4,105.2
			c-1.1,0-1.7,1-1.7,2.9c1.7,0.1,1.9-1.7,2.6-2.9H27.4z M31.2,96.2c-0.5,1-2.4,2.8-2.4,4c1.9,0.1,6.1-2.3,3.3-4
			C31.9,96.2,31.4,96.2,31.2,96.2z M29.8,103.8h0.7l-0.7-1.4V103.8z M34.3,103.8h1c0-0.8-0.3-1.3-1-1.4V103.8z M38.1,110h1.7
			c0.1-1-0.9-1-1.7-1V110z M38.8,89c0,0.8,0.3,1.4,1,1.9l0.7-1C39.8,89.4,39.3,89,38.8,89z M39.7,125.9h0.7v-0.7h-0.7V125.9z
			 M41.2,116.6c-0.6-0.1-0.6,1,0,1C41.8,117.3,41.8,117,41.2,116.6z M41.2,125.9c-0.6-0.1-0.6,1.5,0,1.4
			C41.8,127.4,41.8,125.8,41.2,125.9z M42.6,84.1c-1,1.6-0.9,3.6-1,5.5C44.8,89.7,43.4,85.6,42.6,84.1z M41.9,113.8h0.7v-0.9h-0.7
			V113.8z M42.6,81.7c-0.2-0.2-0.2,0-0.2,0.4C42.3,83.2,43.8,81.7,42.6,81.7z M49.5,100c-2.1,1.5-6.5,0.4-6.4,4
			c2.6,0.1,3.8-1.6,6.4-1.4V100z M46.4,129.7c0.9,4.6,3.4,0.1,4.3-1.7C49.8,128.2,46.1,128.3,46.4,129.7z M48.8,93.8
			c-0.6-0.1-0.6,1.8,0,1.7C49.4,95.6,49.4,93.7,48.8,93.8z M52.6,120.4c0.2-0.2,0.1-0.2-0.2-0.2C51.2,120.2,52.7,121.7,52.6,120.4z
			 M52.6,74.8c1,0.2,2-0.5,1.4-1.4L52.6,74.8z M54,132.8c2,5.6,2.4-1.2,2.4-3.1c0.2-0.7,2.5-1.8,2.4-2.6c0.2-1.5-6.2-4.3-6.2-1.9
			c0,1.1,0,3.4,0,4.5l2.4-2.4C57,129.1,53.9,130.8,54,132.8z M54,78.1c-0.1,2.4,4.3,1.3,5.5,0.5C57.7,77.9,54.6,73.8,54,78.1z
			 M56.9,120.4c-2.2-0.1-2.3,1.7-2.4,3.3C57,123.9,56.8,122.2,56.9,120.4z M56.4,84.8c0.6,0.2,1.7,1.5,2.4,1.4
			C59.8,83,53.9,81.1,56.4,84.8z M58.8,72.6c-1.8,0.1,0.3,2.7,0.5,0.7C59.2,72.9,59.1,72.6,58.8,72.6z M60.9,80.2
			c-0.9,0.2-0.9,1.5-1,2.1h1V80.2z M65.4,77.2c-0.2-0.2-0.2,0-0.2,0.4C65.1,78.6,66.6,77,65.4,77.2z M67.6,62.7
			c0,1.1,0.6,1.7,1.7,1.7v-1.7H67.6z M68.5,65.7c-0.6-0.1-0.6,1.5,0,1.4C69.2,67.3,69.2,65.6,68.5,65.7z M68.5,74.1l0.7,0.7
			c0.6-0.4-0.5-1.1-0.7-1.4C68.5,73.5,68.5,73.9,68.5,74.1z M69.2,87.9c-0.3,0-0.5,0.2-0.5,0.7C69,90.6,71,87.9,69.2,87.9z
			 M70.9,77.9c0.7,0.8,3.3,0.6,4.3,1c0.2-2.3-2.8-2.6-4.3-2.6V77.9z M72.3,60.5H73v-0.9h-0.7V60.5z M73,74.1c-0.6-0.1-0.6,1.8,0,1.7
			C74,75.8,74,74,73,74.1z M74.7,74.8h0.7v-1.4h-0.7V74.8z M76.8,131.9c-0.6-0.1-0.6,1.8,0,1.7C77.8,133.6,77.8,131.7,76.8,131.9z
			 M78.5,81c-0.7-0.4-0.6,0.8,0,0.7C78.7,81.5,78.7,81.3,78.5,81z M79.2,145.4h0.7V144h-0.7V145.4z M79.9,55.8
			c-0.2,0-0.2,0.2-0.2,0.5C79.7,57.3,81.1,56,79.9,55.8z M83,75.7c-0.3-0.2-0.5,0-0.5,0.4C82.5,77.2,84.4,75.7,83,75.7z M86.8,143.8
			c-0.6,0-1.1,0.3-1.4,1h1.4V143.8z M88.3,67.2c0.2-0.2,0.1-0.2-0.2-0.2C86.9,66.9,88.4,68.4,88.3,67.2z M91.8,64.8
			c0.1,0.5-0.2,4.6,1.4,4.3C95.8,68.5,94.9,64.3,91.8,64.8z M93,141.9c-0.6-0.4-0.6,1.1,0,0.7C93.2,142.4,93.2,142.2,93,141.9z
			 M94.7,147.6c-0.9,0.5-0.9,1.6-1,2.4C95.3,150.3,96.5,148,94.7,147.6z"/>
	</g>
	<g>
		<path fill="#51BCC5" d="M1181.9,162.3c-0.3,1.1-1.7,1.5-2.6,1.9v-4.3h-2.1c1.9-18.7,19.6-30.4,29.3-44.7c1.1-2.1,4.4-1.5,5.9-2.4
			c0.6-2.2,3.7-5.3,5.5-6.9c2.6,0.9,4-7.4,5.9-5.2c1.3-3.9-1.4-13.3-6.3-7.6c-0.6,1.1-1.6,1.7-3.2,1.7c-3.6,0.1-4.8-3.7-8.6-3.3v-1
			c-10,1.6-22.2-9.5-29-15.7c0.5-4.6-0.9-12.2,1.9-15.9c1.4,0.1,3.8,4.8,5.9,4.3c2.4-2.3-2.9-0.9-2.6-3.1c1.3-3.1,8.8-7.7,11.4-4.3
			c0.4,2.6-1.6,10,3.1,3.8c-2.7,8.2,3.4,2.8,6.9,1.4c0,5.9-3.2,8.6,5.2,5.5c0.1,0.3,0.6,2.3,1.2,2.1c1.6-0.4,5.4,0.2,5.9-1.9
			c0.1-2.3-3.2-0.8-2.9-3.6c6.9-0.6,6,16.2,12.6,4.8v5.7c3.2-0.4,1.6-6,5.7-5.5c0.3,1.9-1,3.8-1.9,5.2c1.8,4.5,3.4,0.3,9.3,1.9
			c0.1-1.5-0.6-5.5,2.4-5.2c0,1.9-0.3,3.7-1,5.5c10.2-1.5,9.9-5.4,16.6,5.5c-1.5,0.3-2.2,4-0.7,4.5c0.1-2.7,2.8-3,2.6-5.7
			c2.4-0.1,0.7,19.7,1.2,20.9c-3.9,3.3-0.6,7.1-7.8,5c-0.1,0.7,1.7,5.8,1,6.4c-1.9,2.8-6.6,8.6-10,4.5v3.3c-1.4,0-2.5,1.4-2.1,2.9
			c-6-0.1-13.7,4.8-17.6,9c0.6-3-2.3-7.2-5-8.1c2,5.3,3.2,12-2.9,15.5c0.2-1.1,0-11.6-1.4-6.9c-0.1,8.6,0.8,9.3-5.9,3.3l0.5,7.8
			h-0.7v-2.4h-2.4l1.4,6.9c-3.6,0-5.5,1.9-5.5,5.7c2.1,0.2,2-2.3,4-2.1v5c-0.3,0-0.8-0.3-1.4-1c-1.6,2.4-3.8,3.6-6.7,3.6
			c-2.2,4.6-8.7,6.3-13.3,7.4C1183.8,165.8,1184.2,160.8,1181.9,162.3z M1178.1,159.9c1.8,0.1-0.3,3.2-0.5,0.8
			C1177.6,160.2,1177.8,159.9,1178.1,159.9z M1183.1,49.5c-1.4,3.6-5.8,6.1-5.2,0H1183.1z M1184.3,64.7c-0.6-0.1-0.6,1.8,0,1.7
			C1184.9,66.5,1184.9,64.6,1184.3,64.7z M1185,67.1c-0.2-0.2-0.2,0-0.2,0.4C1184.7,68.6,1186.2,67,1185,67.1z M1185,69.5
			c0.5,0.9,1.6,0.9,2.4,0.9v-0.9H1185z M1186.7,58.8c1.1,1.4,1.7,3,1.7,4.8C1192.7,63.4,1189.4,58.3,1186.7,58.8z M1188.1,140.8
			c-0.6-0.1-0.6,1.8,0,1.7C1188.7,142.6,1188.7,140.7,1188.1,140.8z M1192.6,131.8c-0.6-0.1-0.6,1.5,0,1.4
			C1193.2,133.3,1193.2,131.7,1192.6,131.8z M1194,65.7c-0.4,3,3,2.1,4.8,1.4C1198.5,65,1195.4,65.8,1194,65.7z M1198.1,145.6
			c-2.3-0.2-3.8,3.1-3.8,4.8c2.2,0.1,6.7-2.3,4.3-4.8H1198.1z M1198.6,142.7c-0.2-0.7-1.3,0.4-1,0.7
			C1198.1,143.8,1198.9,143.2,1198.6,142.7z M1198.1,70.2l0.7-0.7h-0.7V70.2z M1200.2,58.1l-0.7,0.7v-1.7L1200.2,58.1z M1202.8,74.5
			c-0.1,1,1.1,3.9,2.6,3.1C1206.4,76,1204.4,74.4,1202.8,74.5z M1203.8,148c0.6-0.1,0.6,1.5,0,1.4
			C1203.2,149.5,1203.1,147.9,1203.8,148z M1207.1,70.2c0.4-0.7-0.8-0.6-0.7,0C1206.9,70.7,1207.1,70.7,1207.1,70.2z M1208.5,63.3
			h-1.4c0-1.1,0.4-3.2,1.4-3.8V63.3z M1209,149.4c1.1,0.3-0.2,1.6-0.2,0.5C1208.8,149.6,1208.9,149.4,1209,149.4z M1211.6,141.6
			c-0.3,0-0.6-0.3-1-1C1209.6,138.1,1212.7,141.2,1211.6,141.6z M1210.7,145.6c0.6-0.1,1.1,1.2,0.7,1.7
			C1210.9,146.9,1210.5,146.3,1210.7,145.6z M1216.2,71.6v-1.4h-4.5C1210.8,71.5,1215.8,71.3,1216.2,71.6z M1215.4,91.4
			c-0.2,0-0.2,0.2-0.2,0.5C1215.2,93,1216.6,91.7,1215.4,91.4z M1217.1,130.4c0.6-0.7,0.9-1,0-1.7V130.4z M1218.5,79.2
			c-0.3-0.2-0.5,0-0.5,0.4C1218,80.5,1219.8,79.7,1218.5,79.2z M1221.6,93c0.6,1.4,0.7,4.3,0.7,5.9c-2.2-1.4-3.3-3.4-3.3-5.9H1221.6
			z M1220.9,74c-1.8,0.1,0.3,2.7,0.5,0.7C1221.4,74.2,1221.2,74,1220.9,74z M1224.7,62.6c0,1.3-0.6,2.3-1.7,3.1
			c-0.6-1.3-1-2.3-1-3.1H1224.7z M1223.1,103.7h2.4v-1.7h-2.4V103.7z M1226.9,124.2c-0.3-0.6-0.3,2.3,0,1.4
			C1227.7,125.6,1227.3,124.6,1226.9,124.2z M1229.2,64c1,0.8-0.5,1-0.5,0.2C1228.8,63.9,1228.9,63.9,1229.2,64z M1230.7,99.9
			c-0.2-0.2-0.2,0-0.2,0.4C1230.3,101.4,1231.9,99.8,1230.7,99.9z M1231.1,80c0,2,0.3,4,1.9,5.5C1233,83.4,1234.4,79.8,1231.1,80z
			 M1232.3,88.5c-0.3-0.2-0.5,0-0.5,0.4C1231.8,90,1233.4,88.4,1232.3,88.5z M1232.3,94.5c-1.1-0.3-0.1,1.7,0.2,0.4
			C1232.6,94.6,1232.5,94.5,1232.3,94.5z M1237.6,72.3c-0.4,0.6-1.7,1.1-2.4,1c0.2-1.7-0.3-5.1,2.4-5V72.3z M1237.6,105.2h0.7v-0.7
			h-0.7V105.2z M1239.9,67.1c0.3,0.3,0.8,0.7,1,1.2C1240.1,69.1,1239.8,67.7,1239.9,67.1z M1242.1,80v-0.7h-0.7L1242.1,80z
			 M1242.8,82.8c0,2.5,0.6,2.9,2.4,4.8c0.2-1.3,5-4.9,4.8-6.4C1248.9,78,1241.4,78.4,1242.8,82.8z M1245.2,70.9
			c-0.6,0.6-1.1,1-1.4,1v-1H1245.2z M1245.9,114.2c0.2-0.2,0.1-0.2-0.2-0.2C1244.5,113.9,1246,115.4,1245.9,114.2z M1246.6,82.3
			c1.8,0.1-0.3,2.7-0.5,0.7C1246.1,82.6,1246.3,82.3,1246.6,82.3z M1247.3,86.9c0,2,1.9,1.6,1.9,0H1247.3z M1249.7,75.2
			c-0.7,0-1.9,0-2.1,1h2.1V75.2z M1252.1,83.8c-0.6-0.1-0.6,1.8,0,1.7C1252.7,85.5,1252.7,83.6,1252.1,83.8z M1257.3,99.9h0.7
			l-0.7-1V99.9z"/>
	</g>
</g>
</svg>
