<svg version="1.2" baseProfile="tiny" xmlns="http://www.w3.org/2000/svg" width="1270.7" height="181.9" overflow="visible" xml:space="preserve"><g fill="#51BCC5"><path d="M141.3 132V46.7c0-13.5 2.6-22.7 7.7-27.8 5.2-5 14.7-7.5 28.6-7.5h65v33.4h-60.2c-4.3.4-6.9 2.7-7.7 6.9v67.8c0 5.2.7 8.7 2 10.7 1.4 1.9 4 2.9 7.9 2.9H242.7v33.4h-70c-3.7 0-7.6-.8-11.6-2.4-13.2-5.2-19.8-15.9-19.8-32.1zM259.7 166.4V6.7h29.5v159.7h-29.5zM309.4 140.1v-23.7c0-8.6 2.5-15.4 7.5-20.2 5-4.9 12-7.3 20.9-7.3h39.4l-.2-6.2c0-2.4-2.1-3.9-6.3-4.5h-61.3v-28H382.3c7.4.9 12.9 3 16.5 6.3 3.7 3.3 6.1 8.5 7.2 15.6.3 1.2.4 2.9.4 5.2V139c0 2.4-.1 4.3-.4 5.4-1.3 6.6-4.3 12-9 16s-10.5 6-17.2 6h-40.5c-16.9 0-26.8-7-29.5-21.1.1-1.1.1-2.2 0-3.2 0-.5-.1-1.1-.4-2zm31-5c.9 1.3 2.4 2.2 4.5 2.6h24.5c2.6 0 4.5-.7 5.7-2.2 1.2-1.4 1.8-2.9 1.8-4.5v-8.2c0-2-.1-3.2-.4-3.7-.3-.6-1.4-1.3-3.2-2.2-.7-.6-2.1-.9-4.1-.9h-25.8c-2.6.4-4.1 2.3-4.5 5.7v9.3c0 1.7.5 3 1.5 4.1zM425.2 166.4v-29.5H477.9c3.3-.6 5.3-2.1 5.8-4.5v-3.7l-.6-2.6c-1-1.7-2.4-2.8-4.3-3.2h-25.4c-4.7 0-9-1.1-12.7-3.2-9.9-5.5-14.9-12.6-14.9-21.5V76.4c0-2.6.3-4.8.9-6.7 3.2-13.1 12.4-19.6 27.8-19.6h59.4l.2 29.5h-53.2l-2.8.9-.6.6c-1.7 1.6-2.6 2.9-2.6 3.9v2.8c.1.4.2.8.2 1.1.1.7.6 1.5 1.4 2.5.8.9 2.6 1.6 5.5 2h26c7.3 0 13.3 2.9 18.2 8.8 4.8 5.9 7.3 11.6 7.3 17v21.3c0 4.7-1.5 9.4-4.6 13.9-3.1 4.5-6.3 7.6-9.6 9.4-3.3 1.7-7.8 2.6-13.3 2.6h-60.8zM531.3 166.4v-29.5H584c3.3-.6 5.3-2.1 5.8-4.5v-3.7l-.6-2.6c-1-1.7-2.4-2.8-4.3-3.2h-25.4c-4.7 0-9-1.1-12.7-3.2-9.9-5.5-14.9-12.6-14.9-21.5V76.4c0-2.6.3-4.8.9-6.7 3.2-13.1 12.4-19.6 27.8-19.6H620l.2 29.5H567l-2.8.9-.6.6c-1.7 1.6-2.6 2.9-2.6 3.9v2.8c.1.4.2.8.2 1.1.1.7.6 1.5 1.4 2.5.8.9 2.6 1.6 5.5 2h26.1c7.3 0 13.3 2.9 18.2 8.8 4.8 5.9 7.3 11.6 7.3 17v21.3c0 4.7-1.5 9.4-4.6 13.9-3.1 4.5-6.3 7.6-9.6 9.4-3.3 1.7-7.8 2.6-13.3 2.6h-60.9zM634.1 70.5l10.7-23.1c-7.1-3.6-10.6-9.3-10.6-17.2 0-5.5 1.9-9.9 5.7-13.5 3.8-3.5 8.1-5.3 12.8-5.3 5 0 9.4 1.9 13.1 5.6 3.7 3.7 5.6 8.4 5.6 14v4.7l-2 5.2L655 70.4l-20.9.1zM687.1 132V46.7c0-13.5 2.6-22.7 7.7-27.8 5.2-5 14.7-7.5 28.6-7.5h65v33.4h-60.1c-4.3.4-6.9 2.7-7.7 6.9v67.8c0 5.2.7 8.7 2 10.7 1.4 1.9 4 2.9 7.9 2.9H788.6v33.4h-70c-3.7 0-7.6-.8-11.6-2.4-13.3-5.2-19.9-15.9-19.9-32.1zM805.5 140.4V76.2l.6-5.2c2.7-13.9 12.3-20.9 28.6-20.9h39.6c16.2 0 25.8 7 28.8 20.9.3 1.1.4 2.9.4 5.2v64.1c0 2.3-.1 4-.4 5.2-3 13.9-12.6 20.9-28.8 20.9h-39.6c-16.4 0-25.9-7-28.6-20.9l-.6-5.1zm32.1-5.4c1.6 1.3 2.9 1.9 4.1 1.9h26c1.9 0 3.6-1.1 5.2-3.4 1-1.6 1.5-3.2 1.5-4.7V87.6c0-2.3-.8-4.2-2.4-5.7-1.6-1.5-3-2.3-4.3-2.3h-26c-1.4 0-2.9.8-4.4 2.3-1.5 1.5-2.3 3.4-2.3 5.7v41.3c0 2.3.9 4.4 2.6 6.1zM923.5 137.1V74.3c.9-6.2 3.1-11.3 6.7-15.5 3.6-4.2 8.2-6.8 13.9-8l5.8-.6h42.2V6.7h29.3v128.5c0 5.6-.5 10-1.5 13.2-1 3.2-2.8 6.2-5.4 8.9-5.5 6-12.9 9-22.4 9h-41.8c-5.5 0-9.9-1-13.5-3.1-3.5-2.1-6.8-5.6-9.8-10.7-2.3-4.3-3.5-9.5-3.5-15.4zm68.6-49v-1.5c-.4-2.3-1.3-3.9-2.6-4.8-1.9-1.4-3.6-2.2-5.2-2.2h-22.7c-2.5 0-4.3.5-5.6 1.5-1.3 1-2.2 2.8-2.8 5.4v45.8c.7 2.3 2.5 3.8 5.2 4.5H986.2c3.9-.6 5.9-2.1 5.9-4.5V88.1zM1042.1 77.3l.6-5.8c3.3-14.2 12.7-21.3 28.3-21.3H1116.3c13.2 2.2 20.7 9.8 22.4 23v28.4l-67.2 25.2v1.9c0 2.4.5 4.4 1.6 5.9s2.5 2.3 4.2 2.3h61.3v29.5h-64.9c-4.9 0-8.5-.2-10.7-.6-2.2-.4-4.5-1.3-6.8-2.6-5.2-2.9-8.8-6.3-11-10.4-2.2-4.1-3.2-9.6-3.2-16.5v-59zm66.7 9.6v-1.1c-.6-2.5-2.4-4-5.6-4.6H1081l-3.2.6c-2.7.7-4.6 2-5.6 3.8l-.6 3-.1 11.7 37.3-13.4z"/></g><path fill="#51BCC5" d="M90.2 153.7c1.6-2.4 1.7-3.7.9-6.7-1.7-.1-2.4 2.7-4.2 1.8.5-.3 1.9-.1.6.6-.2-4.4-11.9-1.5-7.6.7 0 1.9.9.6 1.7 2.4-9.3 2.9-2.2-20-10.7-7.1-1.2-1.3-2.6-10.1-4.5-6.2.3 1.2 1.3 2.7 1 4-2.1 0-2.9-1-2.6-2.9-2.4-.9-3.7.8-5.9.7 0-.9.9-3.6.7-4.5-1.4-.5-2.9-1.7-3.3.6-3.9 10.4-12.6-7.8-19.5-3-2.4-.1-2.7-7.7-6.4-3.1v-2.9c-.3-.1-1.1.2-1.2-.2-16.8 4.3-5.6-2.3-16.9-3.8-.4-3.1-3.4-5.2-3.8-8.3-.2-2.4 3-2 3.8-3.8-1.2-5.2 3.9-12.8 9.3-12.8 3.5.6 1.2-1.2 2.3-2.6.6-.7 4.2-.8 4.2-3.1 2.1-4.4 8.3-5.3 10.9-9.5.6.4 1.6 2 2.4 1.4-2.1-5.2 8.5-10.7 12.1-15.9 3.9-.8 5.1-1.1 7.6-4.5-1.2 1.7 2.9 5.1 4.3 5 0-1.4 1-4.8-.5-5.7-3.5-8.1 12.4-4.6 12.1-12.4 2.1-.8 2.3 2.6 3.8 1.7 6.3-3.6 3.2 7.7 5.7 9.3 1.4-.8 1-3.5 1.9-4.8 1.6.5.8 3.7 2.9 1.9v-3.8c2.5-.2 6.1 12.5 7.8 7.6.1-1.5-1.6-3.8 0-5 3.5 3.8-.1 9.8-1.2 14.2-.9 2.6-1.1 1.6-2.6 1.1-.4-.1-1.3.2-1.3-.3-2.2.3-.4 3.3-3.7 3-10.1 2.2-2.8 13.3-17 5.8-.2 2.7 2.4 4.9 1.4 7.4l-2.4-2.1c.2 2.4-.9 4.7-3.1 6.9 2-3.2-2.6-7.3-4.8-2.6-1.4 1.9-1.3 2.8-2.9 2.6 1.3-3.9-3-3.5-5.2-2.4-7.8-1.8-4.5 9.3-5.5 14-.9-.1-1.7-1.1-2.1-1.9-1.1 2.1-4.2 1.9-5.9 3.2-4 2.9 4.7 5.2 3.6 1.3 1.8-.2.6 4.6 1 5.5 5.1-2.1 6.4.8 11.7 2 7.9 1.4 4.4 2 5.5 7.7 1.9 0 1.5-2.4 1.9-3.8 3.3.1 2.4 4.1 1.9 6.7 1.7.1 1.8-1.3 2.5-2.4 3.7-1.5 12 1.1 11.8 6.2 2.1-.2 1.8 1.3 3.6-.5-1.8 6.6.2 11.2 4 2.9 3.1.1 5 5.8 7.4 6.2 5 5.2 13 11.9 11.4 20-2.5.8-7.5.4-8.3 3.8.2-1.7-3.9-.7-4.8-1 .4-3.8-4.1-5.8-5.8-8.6zm-78.8-36.1c.7 1.2 2 .6 3.1.7-.5-.9-1.3-1.9-2.4-1.7.1.2-.2.5-.7 1zm9.3-14.5c.2 3.1 3.7.2 1.4-.7-.5 0-1.4-.2-1.4.7zm6.7 2.1c-1.1 0-1.7 1-1.7 2.9 1.7.1 1.9-1.7 2.6-2.9h-.9zm3.8-9c-.5 1-2.4 2.8-2.4 4 1.9.1 6.1-2.3 3.3-4h-.9zm-1.4 7.6h.7l-.7-1.4v1.4zm4.5 0h1c0-.8-.3-1.3-1-1.4v1.4zm3.8 6.2h1.7c.1-1-.9-1-1.7-1v1zm.7-21c0 .8.3 1.4 1 1.9l.7-1c-.7-.5-1.2-.9-1.7-.9zm.9 36.9h.7v-.7h-.7v.7zm1.5-9.3c-.6-.1-.6 1 0 1 .6-.3.6-.6 0-1zm0 9.3c-.6-.1-.6 1.5 0 1.4.6.1.6-1.5 0-1.4zm1.4-41.8c-1 1.6-.9 3.6-1 5.5 3.2.1 1.8-4 1-5.5zm-.7 29.7h.7v-.9h-.7v.9zm.7-32.1c-.2-.2-.2 0-.2.4-.1 1.1 1.4-.4.2-.4zm6.9 18.3c-2.1 1.5-6.5.4-6.4 4 2.6.1 3.8-1.6 6.4-1.4V100zm-3.1 29.7c.9 4.6 3.4.1 4.3-1.7-.9.2-4.6.3-4.3 1.7zm2.4-35.9c-.6-.1-.6 1.8 0 1.7.6.1.6-1.8 0-1.7zm3.8 26.6c.2-.2.1-.2-.2-.2-1.2 0 .3 1.5.2.2zm0-45.6c1 .2 2-.5 1.4-1.4l-1.4 1.4zm1.4 58c2 5.6 2.4-1.2 2.4-3.1.2-.7 2.5-1.8 2.4-2.6.2-1.5-6.2-4.3-6.2-1.9v4.5l2.4-2.4c2 1.8-1.1 3.5-1 5.5zm0-54.7c-.1 2.4 4.3 1.3 5.5.5-1.8-.7-4.9-4.8-5.5-.5zm2.9 42.3c-2.2-.1-2.3 1.7-2.4 3.3 2.5.2 2.3-1.5 2.4-3.3zm-.5-35.6c.6.2 1.7 1.5 2.4 1.4 1-3.2-4.9-5.1-2.4-1.4zm2.4-12.2c-1.8.1.3 2.7.5.7-.1-.4-.2-.7-.5-.7zm2.1 7.6c-.9.2-.9 1.5-1 2.1h1v-2.1zm4.5-3c-.2-.2-.2 0-.2.4-.1 1 1.4-.6.2-.4zm2.2-14.5c0 1.1.6 1.7 1.7 1.7v-1.7h-1.7zm.9 3c-.6-.1-.6 1.5 0 1.4.7.2.7-1.5 0-1.4zm0 8.4.7.7c.6-.4-.5-1.1-.7-1.4v.7zm.7 13.8c-.3 0-.5.2-.5.7.3 2 2.3-.7.5-.7zm1.7-10c.7.8 3.3.6 4.3 1 .2-2.3-2.8-2.6-4.3-2.6v1.6zm1.4-17.4h.7v-.9h-.7v.9zm.7 13.6c-.6-.1-.6 1.8 0 1.7 1 0 1-1.8 0-1.7zm1.7.7h.7v-1.4h-.7v1.4zm2.1 57.1c-.6-.1-.6 1.8 0 1.7 1 0 1-1.9 0-1.7zM78.5 81c-.7-.4-.6.8 0 .7.2-.2.2-.4 0-.7zm.7 64.4h.7V144h-.7v1.4zm.7-89.6c-.2 0-.2.2-.2.5 0 1 1.4-.3.2-.5zM83 75.7c-.3-.2-.5 0-.5.4 0 1.1 1.9-.4.5-.4zm3.8 68.1c-.6 0-1.1.3-1.4 1h1.4v-1zm1.5-76.6c.2-.2.1-.2-.2-.2-1.2-.1.3 1.4.2.2zm3.5-2.4c.1.5-.2 4.6 1.4 4.3 2.6-.6 1.7-4.8-1.4-4.3zm1.2 77.1c-.6-.4-.6 1.1 0 .7.2-.2.2-.4 0-.7zm1.7 5.7c-.9.5-.9 1.6-1 2.4 1.6.3 2.8-2 1-2.4zM1181.9 162.3c-.3 1.1-1.7 1.5-2.6 1.9v-4.3h-2.1c1.9-18.7 19.6-30.4 29.3-44.7 1.1-2.1 4.4-1.5 5.9-2.4.6-2.2 3.7-5.3 5.5-6.9 2.6.9 4-7.4 5.9-5.2 1.3-3.9-1.4-13.3-6.3-7.6-.6 1.1-1.6 1.7-3.2 1.7-3.6.1-4.8-3.7-8.6-3.3v-1c-10 1.6-22.2-9.5-29-15.7.5-4.6-.9-12.2 1.9-15.9 1.4.1 3.8 4.8 5.9 4.3 2.4-2.3-2.9-.9-2.6-3.1 1.3-3.1 8.8-7.7 11.4-4.3.4 2.6-1.6 10 3.1 3.8-2.7 8.2 3.4 2.8 6.9 1.4 0 5.9-3.2 8.6 5.2 5.5.1.3.6 2.3 1.2 2.1 1.6-.4 5.4.2 5.9-1.9.1-2.3-3.2-.8-2.9-3.6 6.9-.6 6 16.2 12.6 4.8v5.7c3.2-.4 1.6-6 5.7-5.5.3 1.9-1 3.8-1.9 5.2 1.8 4.5 3.4.3 9.3 1.9.1-1.5-.6-5.5 2.4-5.2 0 1.9-.3 3.7-1 5.5 10.2-1.5 9.9-5.4 16.6 5.5-1.5.3-2.2 4-.7 4.5.1-2.7 2.8-3 2.6-5.7 2.4-.1.7 19.7 1.2 20.9-3.9 3.3-.6 7.1-7.8 5-.1.7 1.7 5.8 1 6.4-1.9 2.8-6.6 8.6-10 4.5v3.3c-1.4 0-2.5 1.4-2.1 2.9-6-.1-13.7 4.8-17.6 9 .6-3-2.3-7.2-5-8.1 2 5.3 3.2 12-2.9 15.5.2-1.1 0-11.6-1.4-6.9-.1 8.6.8 9.3-5.9 3.3l.5 7.8h-.7V141h-2.4l1.4 6.9c-3.6 0-5.5 1.9-5.5 5.7 2.1.2 2-2.3 4-2.1v5c-.3 0-.8-.3-1.4-1-1.6 2.4-3.8 3.6-6.7 3.6-2.2 4.6-8.7 6.3-13.3 7.4.1-.7.5-5.7-1.8-4.2zm-3.8-2.4c1.8.1-.3 3.2-.5.8 0-.5.2-.8.5-.8zm5-110.4c-1.4 3.6-5.8 6.1-5.2 0h5.2zm1.2 15.2c-.6-.1-.6 1.8 0 1.7.6.1.6-1.8 0-1.7zm.7 2.4c-.2-.2-.2 0-.2.4-.1 1.1 1.4-.5.2-.4zm0 2.4c.5.9 1.6.9 2.4.9v-.9h-2.4zm1.7-10.7c1.1 1.4 1.7 3 1.7 4.8 4.3-.2 1-5.3-1.7-4.8zm1.4 82c-.6-.1-.6 1.8 0 1.7.6.1.6-1.8 0-1.7zm4.5-9c-.6-.1-.6 1.5 0 1.4.6.1.6-1.5 0-1.4zm1.4-66.1c-.4 3 3 2.1 4.8 1.4-.3-2.1-3.4-1.3-4.8-1.4zm4.1 79.9c-2.3-.2-3.8 3.1-3.8 4.8 2.2.1 6.7-2.3 4.3-4.8h-.5zm.5-2.9c-.2-.7-1.3.4-1 .7.5.4 1.3-.2 1-.7zm-.5-72.5.7-.7h-.7v.7zm2.1-12.1-.7.7v-1.7l.7 1zm2.6 16.4c-.1 1 1.1 3.9 2.6 3.1 1-1.6-1-3.2-2.6-3.1zm1 73.5c.6-.1.6 1.5 0 1.4-.6.1-.7-1.5 0-1.4zm3.3-77.8c.4-.7-.8-.6-.7 0 .5.5.7.5.7 0zm1.4-6.9h-1.4c0-1.1.4-3.2 1.4-3.8v3.8zm.5 86.1c1.1.3-.2 1.6-.2.5 0-.3.1-.5.2-.5zm2.6-7.8c-.3 0-.6-.3-1-1-1-2.5 2.1.6 1 1zm-.9 4c.6-.1 1.1 1.2.7 1.7-.5-.4-.9-1-.7-1.7zm5.5-74v-1.4h-4.5c-.9 1.3 4.1 1.1 4.5 1.4zm-.8 19.8c-.2 0-.2.2-.2.5 0 1.1 1.4-.2.2-.5zm1.7 39c.6-.7.9-1 0-1.7v1.7zm1.4-51.2c-.3-.2-.5 0-.5.4 0 .9 1.8.1.5-.4zm3.1 13.8c.6 1.4.7 4.3.7 5.9-2.2-1.4-3.3-3.4-3.3-5.9h2.6zm-.7-19c-1.8.1.3 2.7.5.7 0-.5-.2-.7-.5-.7zm3.8-11.4c0 1.3-.6 2.3-1.7 3.1-.6-1.3-1-2.3-1-3.1h2.7zm-1.6 41.1h2.4V102h-2.4v1.7zm3.8 20.5c-.3-.6-.3 2.3 0 1.4.8 0 .4-1 0-1.4zm2.3-60.2c1 .8-.5 1-.5.2.1-.3.2-.3.5-.2zm1.5 35.9c-.2-.2-.2 0-.2.4-.2 1.1 1.4-.5.2-.4zm.4-19.9c0 2 .3 4 1.9 5.5 0-2.1 1.4-5.7-1.9-5.5zm1.2 8.5c-.3-.2-.5 0-.5.4 0 1.1 1.6-.5.5-.4zm0 6c-1.1-.3-.1 1.7.2.4.1-.3 0-.4-.2-.4zm5.3-22.2c-.4.6-1.7 1.1-2.4 1 .2-1.7-.3-5.1 2.4-5v4zm0 32.9h.7v-.7h-.7v.7zm2.3-38.1c.3.3.8.7 1 1.2-.8.8-1.1-.6-1-1.2zm2.2 12.9v-.7h-.7l.7.7zm.7 2.8c0 2.5.6 2.9 2.4 4.8.2-1.3 5-4.9 4.8-6.4-1.1-3.2-8.6-2.8-7.2 1.6zm2.4-11.9c-.6.6-1.1 1-1.4 1v-1h1.4zm.7 43.3c.2-.2.1-.2-.2-.2-1.2-.1.3 1.4.2.2zm.7-31.9c1.8.1-.3 2.7-.5.7 0-.4.2-.7.5-.7zm.7 4.6c0 2 1.9 1.6 1.9 0h-1.9zm2.4-11.7c-.7 0-1.9 0-2.1 1h2.1v-1zm2.4 8.6c-.6-.1-.6 1.8 0 1.7.6 0 .6-1.9 0-1.7zm5.2 16.1h.7l-.7-1v1z"/></svg>
