<svg width="175" height="44" fill="none" xmlns="http://www.w3.org/2000/svg"><path d="M170.154.022H4.846A4.846 4.846 0 0 0 0 4.87v33.376a4.846 4.846 0 0 0 4.846 4.846h165.308A4.846 4.846 0 0 0 175 38.245V4.869a4.846 4.846 0 0 0-4.846-4.847Z" fill="#4CBCC4"/><path d="M13.364 28.093V15.996c0-1.832.524-3.204 1.54-4.217a5.44 5.44 0 0 1 3.893-1.57h9.91v3.398h-9.465c-1.604 0-2.486.853-2.486 2.487v11.745a2.636 2.636 0 0 0 2.486 2.52h9.39v3.402H18.536a5.609 5.609 0 0 1-2.947-1.017c-1.122-.747-1.87-1.993-2.157-3.664a9.473 9.473 0 0 1-.068-.987ZM31.16 33.761V10.204h2.942v23.557h-2.943ZM37.243 29.016V26.89c0-3.597 1.768-5.493 4.513-5.493h7.265V20.24c0-.233-.07-.46-.198-.655a1.048 1.048 0 0 0-.916-.523l-10.664-.03v-2.947h10.47c2.322 0 3.66.95 4.188 3.272.035.26.057.523.063.785v9.094a4.217 4.217 0 0 1-.62 2.244c-.95 1.536-2.192 2.243-3.665 2.243h-5.89a4.533 4.533 0 0 1-2.419-.819 4.383 4.383 0 0 1-2.127-3.889Zm2.991.374c.33 1.178.748 1.44 2.39 1.44h3.99c1.637 0 2.06-.262 2.389-1.44a.875.875 0 0 0 .033-.295v-2.872c.006-.11-.006-.219-.034-.325-.295-1.08-.747-1.44-2.03-1.57H42.28c-1.275.13-1.765.49-2.06 1.57-.028.106-.039.216-.034.325v2.846a.875.875 0 0 0 .034.306l.015.015ZM54.353 33.762v-2.947h9.03a1.027 1.027 0 0 0 .719-.325c.329-.262.49-.688.49-1.44V27.72c0-1.178-.49-1.668-1.732-1.668h-3.982c-2.06 0-3.205-.62-3.956-1.895a3.695 3.695 0 0 1-.49-1.77v-2.243c0-2.516 1.47-4.023 3.922-4.023h9.225v2.946h-8.974c-.23.017-.453.083-.654.195a1.122 1.122 0 0 0-.587 1.122v1.275a1.496 1.496 0 0 0 1.604 1.44h4.397c.274.006.547.027.819.063 2.06.46 3.365 2.06 3.365 3.993v2.779a3.847 3.847 0 0 1-.624 2.03 3.563 3.563 0 0 1-.912 1.047 4.488 4.488 0 0 1-2.244.785l-9.416-.033ZM69.531 33.762v-2.947h9.03a1.028 1.028 0 0 0 .718-.325c.326-.262.49-.688.49-1.44V27.72c0-1.178-.49-1.668-1.731-1.668h-3.993c-2.06 0-3.205-.62-3.957-1.895a3.698 3.698 0 0 1-.493-1.77v-2.243c0-2.516 1.473-4.023 3.926-4.023h9.225v2.946h-8.974c-.23.017-.453.083-.655.195a1.121 1.121 0 0 0-.587 1.122v1.275a1.496 1.496 0 0 0 1.604 1.44h4.383c.273.006.547.027.819.063 2.06.46 3.365 2.06 3.365 3.993v2.779a3.848 3.848 0 0 1-.625 2.03 3.523 3.523 0 0 1-.916 1.047 4.465 4.465 0 0 1-2.22.785l-9.409-.033ZM93.802 28.093V15.996c0-1.832.524-3.204 1.537-4.217a5.45 5.45 0 0 1 3.893-1.57h9.912v3.398h-9.456c-1.6 0-2.487.853-2.487 2.487v11.745c.006.165.028.329.068.49.295 1.275 1.211 2.03 2.419 2.03h9.389v3.403H98.981a5.578 5.578 0 0 1-2.943-1.017c-1.121-.748-1.87-1.993-2.161-3.665a9.53 9.53 0 0 1-.075-.987ZM111.601 29.41v-9.192c0-2.423 1.376-3.795 3.926-4.09.262 0 .524-.034.786-.034h5.384c.241.004.481.026.718.067 2.618.374 3.99 1.765 3.99 4.057v9.191c0 1.701-.684 2.846-2.419 3.825a4.452 4.452 0 0 1-2.289.527H116.2c-4.311 0-4.703-4.318-4.599-4.352Zm5.071 1.405h4.745c1.308 0 2.06-.718 2.06-2.225v-7.426c0-1.44-.748-2.124-2.06-2.124h-4.753c-1.372 0-2.124.718-2.124 2.124v7.303c0 1.596.752 2.348 2.124 2.348h.008ZM129.55 29.147v-8.6c.006-.274.027-.547.063-.819.427-2.453 1.9-3.63 4.712-3.63h6.869v-5.89h2.939v18.58c0 1.537-.296 2.322-1.245 3.403-1.014 1.122-1.963 1.57-3.171 1.57h-5.781a4.488 4.488 0 0 1-1.735-.426c-1.829-.819-2.651-2.25-2.651-4.188Zm2.991 0c.165 1.047.524 1.474 1.242 1.634.107.027.218.038.329.034h5.16c.421.004.828-.148 1.144-.426.264-.187.475-.438.612-.73.138-.293.198-.616.173-.938v-7.785c0-1.241-.422-1.765-1.6-1.87a1.354 1.354 0 0 0-.329-.03h-4.861c-1.372 0-1.93.554-1.93 1.964v7.945c.002.072.023.141.06.202ZM147.281 29.114v-7.916c0-3.366 1.735-5.104 5.463-5.104h4.382c2.88 0 4.648 1.667 4.648 4.517v2.094l-11.55 5.362v.774c.262 1.604.624 1.963 2.03 1.963h9.722v2.946h-9.886c-1.735 0-2.879-.493-3.829-1.701a4.632 4.632 0 0 1-.98-2.935Zm2.943-4.286 8.6-3.99v-.261c0-1.144-.456-1.537-1.798-1.537h-4.805c-1.406 0-1.997.655-1.997 2.244v3.544ZM89.712 0l-4.285 12.605c-.131.482.04.722.523.722h1.57a.722.722 0 0 0 .719-.524L93.346 0h-3.634Z" fill="#fff"/></svg>
